<?xml version="1.0" standalone="no"?>
<!DOCTYPE svg PUBLIC "-//W3C//DTD SVG 20010904//EN"
 "http://www.w3.org/TR/2001/REC-SVG-20010904/DTD/svg10.dtd">
<svg version="1.0" xmlns="http://www.w3.org/2000/svg"
 width="1200.000000pt" height="1200.000000pt" viewBox="0 0 1200.000000 1200.000000"
 preserveAspectRatio="xMidYMid meet">
<metadata>
Created by potrace 1.11, written by Peter Selinger 2001-2013
</metadata>
<g transform="translate(0.000000,1200.000000) scale(0.100000,-0.100000)"
fill="#000000" stroke="none">
<path d="M5669 11995 c-2 -1 -49 -6 -104 -10 -55 -3 -116 -8 -135 -10 -19 -2
-60 -7 -90 -10 -117 -13 -148 -17 -240 -31 -52 -8 -111 -17 -130 -20 -28 -5
-143 -28 -340 -69 -41 -8 -196 -50 -290 -77 -774 -222 -1522 -616 -2145 -1128
-160 -131 -258 -222 -450 -414 -252 -254 -332 -346 -319 -369 9 -14 116 -160
124 -167 3 -3 32 -41 65 -85 33 -44 67 -89 77 -100 9 -11 65 -81 126 -155 339
-418 902 -1009 1341 -1409 46 -42 91 -83 100 -91 61 -59 384 -334 475 -405 22
-16 62 -48 90 -70 385 -306 829 -573 1146 -689 167 -61 330 -103 330 -85 0 5
-5 9 -10 9 -14 0 -138 86 -203 141 -651 548 -991 1685 -693 2314 114 241 293
363 532 363 259 0 553 -169 805 -461 46 -54 89 -104 95 -111 9 -9 121 -180
171 -261 35 -55 146 -292 178 -380 51 -136 98 -296 111 -375 3 -14 7 -36 9
-50 12 -58 15 -75 21 -129 3 -31 8 -65 10 -76 10 -47 3 -353 -9 -417 -15 -78
38 24 88 167 9 28 21 59 25 70 29 75 81 304 104 455 20 132 29 209 41 375 4
50 9 115 11 145 3 30 7 431 8 890 4 759 11 1306 21 1450 2 30 6 118 10 196 9
188 17 309 30 454 2 25 7 79 10 120 3 41 8 86 10 100 3 14 7 52 10 85 6 73 18
163 31 247 2 15 0 29 -5 32 -5 3 -56 11 -113 16 -56 6 -123 13 -148 16 -49 6
-776 15 -781 9z"/>
<path d="M7229 11858 c0 -7 -2 -21 -4 -31 -7 -39 -26 -153 -29 -182 -4 -29
-11 -82 -21 -155 -3 -19 -7 -60 -10 -90 -3 -30 -7 -71 -10 -90 -4 -31 -12
-135 -20 -240 -24 -320 -23 -1038 0 -1345 2 -27 7 -90 10 -140 3 -49 8 -116
10 -147 3 -32 8 -86 10 -120 6 -65 12 -129 20 -208 14 -141 16 -167 20 -190 2
-14 6 -56 10 -93 3 -37 8 -76 10 -85 2 -15 7 -54 20 -182 1 -14 7 -59 13 -100
6 -41 14 -97 17 -125 7 -62 11 -89 26 -189 6 -44 13 -93 15 -110 2 -17 6 -42
9 -56 2 -14 7 -47 10 -75 3 -27 7 -61 10 -75 7 -37 12 -70 35 -230 12 -80 25
-170 30 -200 5 -30 12 -73 15 -95 7 -47 9 -59 29 -185 8 -52 18 -115 21 -140
6 -44 26 -175 45 -295 17 -106 19 -117 26 -164 3 -25 8 -57 10 -71 2 -14 12
-88 23 -165 21 -142 29 -200 36 -245 3 -14 7 -43 10 -65 4 -22 8 -51 10 -65 3
-14 7 -43 10 -65 4 -22 8 -51 10 -65 3 -20 38 -233 60 -372 3 -16 7 -43 10
-60 3 -18 10 -58 15 -88 5 -30 12 -69 15 -86 15 -92 46 -272 50 -294 6 -34 32
-188 55 -335 11 -66 22 -131 25 -145 4 -25 33 -198 42 -255 2 -16 13 -82 23
-145 10 -63 22 -133 25 -155 3 -23 7 -50 9 -60 2 -11 7 -42 10 -68 4 -27 9
-56 11 -65 1 -10 6 -39 9 -67 4 -27 8 -61 11 -75 2 -14 7 -43 10 -65 3 -22 7
-51 10 -65 2 -14 6 -47 9 -75 4 -27 8 -61 11 -75 6 -34 11 -74 30 -220 8 -69
17 -138 20 -155 2 -16 7 -64 11 -105 3 -41 8 -78 10 -81 2 -3 6 -41 10 -84 3
-44 7 -87 9 -96 2 -9 6 -52 10 -95 4 -43 8 -88 10 -100 2 -11 6 -65 10 -120 4
-54 9 -108 11 -118 2 -11 6 -74 9 -140 4 -67 8 -137 11 -156 17 -145 25 -950
12 -1203 -5 -100 -4 -127 6 -127 7 0 16 3 20 8 4 4 11 7 14 8 9 1 28 9 172 72
166 72 352 167 535 272 194 111 195 112 219 133 11 9 24 17 28 17 22 0 372
250 543 388 245 198 537 477 734 700 236 267 486 612 660 907 45 77 86 147 91
155 18 29 226 445 242 485 9 22 38 94 66 160 81 196 148 391 211 605 29 102
79 295 86 335 1 11 10 54 19 95 9 41 19 91 22 110 3 19 7 43 10 52 3 10 7 28
9 40 2 13 7 46 11 73 4 28 8 52 9 55 1 3 5 34 9 70 5 36 10 72 11 80 2 8 6 47
10 87 4 40 8 85 10 100 20 160 28 808 12 993 -12 143 -26 276 -32 320 -2 14
-9 61 -15 105 -14 100 -18 123 -36 228 -5 30 -31 159 -41 202 -2 11 -6 31 -9
45 -35 176 -196 705 -254 835 -5 11 -30 72 -56 135 -25 63 -53 127 -60 142 -8
15 -14 30 -14 33 1 3 -8 22 -19 43 -11 20 -51 100 -89 177 -38 77 -80 158 -92
180 -58 103 -145 252 -160 275 -10 14 -57 86 -105 160 -109 168 -225 325 -369
500 -153 186 -155 188 -386 420 -252 254 -437 415 -690 601 -154 114 -411 283
-547 360 -309 176 -582 306 -893 423 -146 56 -229 83 -465 156 -51 16 -197 55
-245 65 -175 39 -180 40 -181 23z m3847 -4050 c10 -42 8 -35 19 -93 5 -27 9
-52 10 -55 1 -3 5 -25 9 -50 5 -25 10 -52 11 -60 2 -8 6 -35 9 -60 3 -25 8
-54 10 -65 2 -12 7 -48 11 -80 4 -33 9 -68 11 -77 1 -9 6 -48 9 -85 4 -37 9
-75 10 -84 2 -8 6 -53 10 -100 4 -46 8 -100 10 -119 23 -247 23 -848 1 -1045
-4 -35 -13 -114 -22 -200 -3 -33 -8 -67 -9 -76 -2 -9 -6 -40 -10 -70 -20 -160
-97 -484 -162 -678 -197 -591 -543 -1054 -993 -1328 -41 -26 -86 -53 -100 -62
-14 -8 -81 -42 -149 -74 -150 -70 -344 -136 -506 -171 -66 -15 -130 -29 -143
-32 -28 -6 -38 -24 99 182 58 87 141 215 183 284 42 69 81 132 86 140 88 141
275 496 358 676 112 246 237 600 268 759 2 11 6 31 9 45 9 47 15 85 20 135 3
28 8 58 11 68 3 9 3 17 0 17 -2 0 -18 -43 -35 -96 -109 -338 -298 -679 -564
-1019 -39 -49 -73 -92 -76 -95 -4 -3 -31 -34 -61 -70 -185 -220 -516 -535
-749 -714 l-74 -57 -19 48 c-76 199 -143 451 -163 612 -4 30 -9 63 -11 75 -23
118 -23 533 1 657 2 9 6 40 10 69 8 62 8 64 29 151 8 37 17 78 20 90 3 13 16
60 29 104 113 365 300 704 565 1020 87 104 358 376 482 486 46 41 94 83 105
94 12 11 48 43 81 70 32 28 77 66 99 85 22 20 65 56 95 80 30 25 57 47 60 50
7 7 129 104 235 186 208 162 473 345 645 445 136 80 204 118 212 118 3 1 10
-14 14 -31z"/>
<path d="M1094 9452 c-19 -13 -279 -418 -305 -476 -6 -12 -25 -48 -45 -81
-131 -228 -292 -586 -415 -925 -51 -142 -172 -571 -192 -686 -3 -16 -15 -76
-27 -134 -12 -58 -23 -114 -25 -125 -1 -11 -6 -40 -9 -65 -4 -25 -9 -56 -11
-70 -2 -14 -6 -45 -10 -70 -12 -82 -14 -94 -21 -165 -3 -38 -8 -81 -10 -95
-25 -213 -26 -978 0 -1116 2 -10 7 -54 11 -97 3 -43 8 -88 10 -100 2 -12 6
-44 10 -72 3 -27 8 -57 10 -65 2 -8 6 -35 9 -60 3 -25 8 -55 10 -66 2 -12 7
-38 10 -59 46 -285 219 -897 312 -1102 8 -17 14 -34 14 -37 0 -6 77 -186 120
-281 147 -322 394 -749 574 -991 17 -23 40 -55 51 -70 103 -144 280 -358 430
-519 359 -387 774 -731 1226 -1017 204 -130 563 -318 784 -412 61 -26 119 -51
130 -56 276 -122 904 -304 1190 -345 17 -3 41 -7 55 -10 26 -5 208 -32 273
-40 97 -12 116 -15 172 -19 33 -3 96 -9 140 -13 171 -16 859 -8 990 12 17 2
59 7 95 10 36 3 79 8 95 10 169 25 239 35 241 37 1 2 5 17 7 33 3 17 13 67 21
112 8 45 18 101 21 125 3 24 8 54 10 68 2 14 7 50 10 80 3 30 7 75 10 100 21
189 21 528 0 780 -11 126 -38 339 -51 404 -2 11 -7 37 -10 56 -7 47 -31 156
-56 260 -11 47 -21 92 -23 100 -45 197 -169 536 -281 767 -89 185 -269 486
-366 613 -166 217 -232 300 -324 407 -104 122 -520 547 -669 684 -133 121
-250 226 -290 260 -22 19 -42 37 -45 40 -6 7 -74 67 -170 149 -35 30 -71 62
-80 70 -9 8 -63 55 -120 105 -58 49 -110 94 -116 100 -6 5 -35 30 -65 55 -29
25 -63 54 -75 65 -12 11 -35 31 -51 45 -109 95 -181 158 -199 175 -12 11 -59
54 -105 95 -135 122 -244 225 -404 386 -180 180 -251 256 -450 479 -11 12 -36
39 -55 61 -19 21 -71 82 -115 134 -44 52 -83 97 -86 100 -46 40 -624 796 -784
1024 -33 48 -66 94 -73 104 -100 136 -495 723 -737 1097 -171 266 -157 246
-171 237z m2731 -5145 c28 -3 82 -9 120 -12 39 -3 84 -8 100 -10 17 -2 53 -7
80 -10 63 -8 337 -62 390 -77 22 -6 45 -12 52 -14 39 -7 233 -72 318 -106 245
-97 517 -257 703 -413 152 -127 333 -323 428 -463 22 -32 42 -58 47 -60 4 -2
7 -7 7 -12 0 -5 23 -46 52 -92 101 -162 284 -565 266 -584 -3 -2 -56 20 -119
49 -63 30 -148 69 -189 87 -41 18 -98 43 -127 56 -29 13 -110 46 -180 75 -70
28 -137 55 -148 60 -270 116 -940 321 -1160 354 -22 4 -56 10 -75 15 -19 5
-55 12 -80 15 -25 3 -52 8 -60 10 -8 2 -44 7 -80 10 -36 4 -76 9 -90 11 -66
11 -389 14 -395 4 -4 -6 -3 -9 2 -8 45 12 374 -60 588 -129 216 -70 591 -237
733 -327 23 -14 44 -26 46 -26 17 0 418 -257 424 -272 2 -5 8 -8 13 -8 5 0 17
-7 26 -14 10 -8 68 -52 128 -97 135 -100 361 -289 473 -394 l82 -78 -77 -44
c-173 -99 -461 -225 -623 -272 -25 -8 -66 -20 -91 -27 -25 -8 -54 -16 -65 -19
-10 -2 -48 -11 -83 -20 -193 -47 -405 -70 -651 -70 -231 1 -405 18 -589 60
-40 10 -78 18 -85 19 -149 32 -416 127 -604 217 -57 27 -106 49 -108 49 -10 0
-309 180 -389 233 -77 53 -320 231 -335 247 -3 3 -60 49 -128 104 -68 54 -129
104 -135 110 -7 6 -52 45 -102 86 -79 65 -268 232 -404 355 -24 22 -130 126
-236 230 -257 254 -408 422 -557 618 -58 75 -58 77 -36 86 230 86 660 225 764
245 10 2 80 20 154 39 124 33 391 92 458 102 15 2 41 7 57 10 17 3 55 10 85
15 30 6 64 12 76 14 12 2 45 7 74 11 29 4 62 8 73 11 10 2 42 6 71 9 28 4 65
8 81 10 17 2 64 7 105 10 41 4 86 9 100 11 14 1 79 6 145 9 66 4 121 8 122 9
5 5 509 -2 558 -7z"/>
</g>
</svg>
